<svg id="Layer_1" data-name="Layer 1" xmlns="http://www.w3.org/2000/svg" viewBox="0 0 112.54 130.9"><defs><style>.cls-1{fill:#fff;}.cls-2{opacity:1;}.cls-3{fill:#983120;}</style></defs><title>play</title><path class="cls-1" d="M52,37.1a784,784,0,0,0,12.2,126" transform="translate(-44 -34.19)"/><g class="cls-2"><path class="cls-3" d="M63.71,152.59l-.16-1.25a2,2,0,0,1-.23.68C63.25,152.31,63.49,152.42,63.71,152.59Z" transform="translate(-44 -34.19)"/><path class="cls-3" d="M63.42,150.17l0-.22-.12-.17Z" transform="translate(-44 -34.19)"/><path class="cls-3" d="M62.82,148a3.59,3.59,0,0,0,.22,1.1A2.37,2.37,0,0,0,62.82,148Z" transform="translate(-44 -34.19)"/><path class="cls-3" d="M62.87,149.81c.12-.16.26-.25.4,0h0l-.23-.64A2.06,2.06,0,0,1,62.87,149.81Z" transform="translate(-44 -34.19)"/><path class="cls-3" d="M62.87,149.81c-.12.15-.21.38-.28.46A2.35,2.35,0,0,0,62.87,149.81Z" transform="translate(-44 -34.19)"/><path class="cls-3" d="M59.43,149.8c-.14-.2.82-.3.53-.7a11.39,11.39,0,0,1-1.14-2.75c-.28-.4.66-1.25.39-1.65-.43-1-2.11-3.42-1.81-1.88.5,2.3,1,3.78,1.49,5.83.65,1.63,1.37,3.18,2,4.85a6.17,6.17,0,0,1,.13,1.41c0-.62.1-1.25.13-1.95C61.27,152,59.88,151.16,59.43,149.8Z" transform="translate(-44 -34.19)"/><path class="cls-3" d="M64.71,161.87l-.43-.59a3.42,3.42,0,0,0-.37-3l-.4.54c.16.57.44.59.55,0a6.38,6.38,0,0,0,0,3.55C64.34,162.26,64.64,162.22,64.71,161.87Z" transform="translate(-44 -34.19)"/><path class="cls-3" d="M64.29,163l-.19-.65-.08,0,.25.65Z" transform="translate(-44 -34.19)"/><path class="cls-3" d="M61.23,143.56c-.49-2.89-.84-5.63-1.12-8.31-.22-.18-.45-.29-.38-.59A2.12,2.12,0,0,0,60,134l-.12-1.17-.13-.4h0c-.14-.21-.28-.12-.4,0a2.35,2.35,0,0,1-.28.46c.07-.09.17-.31.28-.46a1.74,1.74,0,0,0,.18-.66,3.69,3.69,0,0,1-.18-1.11,2.31,2.31,0,0,1,.18,1.11l.23.64.11.18-.23-2.68c0-.2-.1-.4-.15-.55-.21-.63-.42-1.25,0-1.71l0-.48-.07.11a.69.69,0,0,1,.07-.19l-.15-2a14.33,14.33,0,0,1-.72-1.27l.42-.51a1.29,1.29,0,0,1-.56-.69c-.24.4-.52.77-.67,1.1-.43.52,1.08.89.26,1.54.82-.65-.69-1-.26-1.54.15-.33.43-.7.67-1.1a2.7,2.7,0,0,1,.2-2.18,1.93,1.93,0,0,1-.2,2.18,1.29,1.29,0,0,0,.56.69l-.42.51a14.33,14.33,0,0,0,.72,1.27L59,121c-.48-8.81-1.45-16.87-1.82-26-.17-4.94-.15-9.7.09-14.38.46-9.31-1.3-17.7.78-27.14.71-3.61.06-10.23-.09-13.69-1.69-4.6-5.76-2.14-6-1.91-3.44,2.93-1.49,5.14-3.36,11.06,1.06-4,2.32,2.86.09,6.72-3.46,5.62-.13,13.29-.63,20.07a54,54,0,0,0,.23,5.5c-.48,10.54,1.94,20.11,2.87,31.06.33,2.9,1.51,5.34,2.3,7.71.39,1.76.14,3.72.33,5.16a28.11,28.11,0,0,0,1.57,6c-.45-2.06-.91-3.55-1.36-5.87-.27-1.54,1.36.93,1.77,1.92.27.41-.69,1.24-.42,1.65a12.23,12.23,0,0,0,1.07,2.77c.28.41-.68.49-.55.7.42,1.37,1.79,2.27,1.66,3.2,0,.7-.1,1.33-.17,1.95a5.67,5.67,0,0,0,.11,1.15l.35.73a2.53,2.53,0,0,1,1-.49c0,.37-.13.92-.13,1.3,0-.38.14-.93.13-1.3a2.53,2.53,0,0,0-1,.49c.83,1.75,1.66,3.79,2.37,5.69l.08,0a6.37,6.37,0,0,1,0-3.54c-.14.54-.41.52-.55-.06l.4-.52a3.41,3.41,0,0,1,.31,3l.42.6c-.08.35-.38.38-.62.48,0,.23.11.45.18.67A8.72,8.72,0,0,0,61.23,143.56Z" transform="translate(-44 -34.19)"/><path class="cls-3" d="M59.53,131.75c0,.15.1.34.15.54L59.51,130C59.1,130.5,59.31,131.12,59.53,131.75Z" transform="translate(-44 -34.19)"/></g><path class="cls-1" d="M53.73,37.94Q105.6,70,156.48,103.83" transform="translate(-44 -34.19)"/><g class="cls-2"><path class="cls-3" d="M148.84,97.18l-1-.71a1.83,1.83,0,0,1,.33.62C148.33,97.33,148.56,97.23,148.84,97.18Z" transform="translate(-44 -34.19)"/><path class="cls-3" d="M146.93,95.8l-.18-.13-.2,0Z" transform="translate(-44 -34.19)"/><path class="cls-3" d="M145,94.84a3.39,3.39,0,0,0,.92.56A2.06,2.06,0,0,0,145,94.84Z" transform="translate(-44 -34.19)"/><path class="cls-3" d="M146.3,96c0-.19,0-.35.24-.32h0l-.61-.24A1.72,1.72,0,0,1,146.3,96Z" transform="translate(-44 -34.19)"/><path class="cls-3" d="M146.3,96c0,.19.13.41.14.51A1.94,1.94,0,0,0,146.3,96Z" transform="translate(-44 -34.19)"/><path class="cls-3" d="M144,98.5c-.24,0,.33-.8-.14-.85a11.59,11.59,0,0,1-2.7-.94c-.47-.06-.45-1.31-.92-1.37-1-.32-3.81-.63-2.53.14,2,1.12,3.33,1.71,5.12,2.67,1.58.58,3.15,1.07,4.75,1.71a5.21,5.21,0,0,1,1.08.82c-.4-.44-.81-.89-1.28-1.37C146.79,98.61,145.24,99.06,144,98.5Z" transform="translate(-44 -34.19)"/><path class="cls-3" d="M156,102.63l-.71-.09c-.4-1.1-1.38-1.42-2.36-1.74l.1.64c.51.27.71.08.4-.37a6.08,6.08,0,0,0,2.5,2.34C156,103.15,156.2,102.91,156,102.63Z" transform="translate(-44 -34.19)"/><path class="cls-3" d="M156.53,103.71l-.59-.3,0,.08.63.25Z" transform="translate(-44 -34.19)"/><path class="cls-3" d="M140.77,93.09c-2.38-1.52-4.58-3-6.71-4.51-.26,0-.5.15-.66-.09a2,2,0,0,0-.33-.62l-.92-.66-.37-.16h0c-.23,0-.26.13-.23.32a1.94,1.94,0,0,1,.14.51c0-.11-.11-.32-.14-.51a1.78,1.78,0,0,0-.36-.56,3.44,3.44,0,0,1-.93-.56,2.16,2.16,0,0,1,.93.56l.61.24.2,0-2.1-1.53-.49-.23c-.6-.23-1.19-.47-1.26-1.07l-.37-.27,0,.12-.1-.17-1.57-1.18a13.52,13.52,0,0,1-1.39-.25l-.1-.64a1.33,1.33,0,0,1-.88,0c.14.43.24.87.39,1.2.1.64,1.34-.27,1.28.77.06-1-1.18-.13-1.28-.77-.15-.33-.25-.77-.39-1.2a2.54,2.54,0,0,1-1.47-1.52c.89.1,1.24.79,1.47,1.52a1.33,1.33,0,0,0,.88,0l.1.64a13.52,13.52,0,0,0,1.39.25L123,80.43c-6.8-5.14-13.44-9.3-20.63-14.42-3.87-2.81-7.52-5.63-11-8.51-7-5.75-14.6-9-21-15.89C67.83,39,62.09,36,59.18,34.33c-4.66-1-4.84,3.72-4.79,4,.5,4.44,3.37,3.91,7,8.64-2.64-3,3.59-.43,5.38,3.53,2.49,5.88,10.36,7.37,15.32,11.61,1.24,1.06,2.77,1.84,4.36,2.93,7.77,6.41,16.43,10.11,25.11,16,2.35,1.5,4.89,2.09,7.12,3a43,43,0,0,1,4,2.94,25.93,25.93,0,0,0,5.34,2.57c-1.78-1-3.16-1.55-5.12-2.65-1.29-.77,1.54-.47,2.52-.15.48,0,.45,1.31.93,1.36a11.13,11.13,0,0,0,2.7.92c.48.06-.09.83.15.86,1.25.56,2.8.1,3.38.79.47.48.88.93,1.29,1.37a4.36,4.36,0,0,0,.9.66l.75.2a2.59,2.59,0,0,1,.27-1c.27.24.58.69.85.93-.27-.24-.58-.69-.85-.93a2.59,2.59,0,0,0-.27,1c1.8.51,3.79,1.21,5.62,1.92l0-.09a5.92,5.92,0,0,1-2.5-2.33c.3.45.11.64-.4.38l-.11-.65c1,.33,2,.64,2.37,1.74l.72.08c.19.29,0,.53-.08.78.19.11.39.2.6.3A8.7,8.7,0,0,0,140.77,93.09Z" transform="translate(-44 -34.19)"/><path class="cls-3" d="M131.16,86.77l.5.23-1.75-1.29C130,86.31,130.57,86.54,131.16,86.77Z" transform="translate(-44 -34.19)"/></g><path class="cls-1" d="M133.65,85.71A761.05,761.05,0,0,1,44,165" transform="translate(-44 -34.19)"/><g class="cls-2"><path class="cls-3" d="M52.64,160.06l1-.69a2,2,0,0,1-.69.1C52.66,159.54,52.68,159.79,52.64,160.06Z" transform="translate(-44 -34.19)"/><path class="cls-3" d="M54.53,158.73l.17-.13.09-.18A3.88,3.88,0,0,1,54.53,158.73Z" transform="translate(-44 -34.19)"/><path class="cls-3" d="M56,157.25a3.4,3.4,0,0,0-.81.69A2.13,2.13,0,0,0,56,157.25Z" transform="translate(-44 -34.19)"/><path class="cls-3" d="M54.57,158.09c.19,0,.33.11.23.33h0l.42-.48A1.86,1.86,0,0,1,54.57,158.09Z" transform="translate(-44 -34.19)"/><path class="cls-3" d="M54.57,158.09c-.19,0-.42,0-.52,0A2.2,2.2,0,0,0,54.57,158.09Z" transform="translate(-44 -34.19)"/><path class="cls-3" d="M52.9,155.09c.1-.21.65.58.84.15A11.71,11.71,0,0,1,55.45,153c.19-.42,1.36,0,1.55-.42.6-.82,1.75-3.37.63-2.42-1.64,1.48-2.59,2.58-4.05,3.94-1,1.29-2,2.6-3.06,3.89a5.58,5.58,0,0,1-1.1.74c.53-.23,1.08-.47,1.68-.75C51.93,157.68,52,156.08,52.9,155.09Z" transform="translate(-44 -34.19)"/><path class="cls-3" d="M45.27,165l.31-.63c1.15,0,1.77-.83,2.38-1.63l-.63-.12c-.41.38-.3.64.22.5a5.81,5.81,0,0,0-3,1.55C44.78,164.81,45,165.05,45.27,165Z" transform="translate(-44 -34.19)"/><path class="cls-3" d="M44.1,165.09l.46-.45-.06,0-.43.5Z" transform="translate(-44 -34.19)"/><path class="cls-3" d="M59,153.82c2.15-1.75,4.22-3.35,6.25-4.88,0-.27,0-.53.28-.61a1.67,1.67,0,0,0,.69-.11l.89-.66.26-.3h0c.09-.22,0-.29-.24-.32a2.21,2.21,0,0,1-.52,0c.1,0,.33,0,.52,0a1.9,1.9,0,0,0,.64-.17,3.15,3.15,0,0,1,.79-.7,2,2,0,0,1-.79.7l-.41.5-.08.18,2-1.51c.13-.14.26-.27.36-.4.39-.48.78-1,1.37-.85l.37-.27h-.12l.19,0L73,143.23c.2-.4.39-.85.63-1.23l.64.09a1.3,1.3,0,0,1,.24-.83c-.45,0-.89,0-1.24,0-.64-.09-.13,1.36-1.1,1,1,.37.46-1.08,1.1-1,.35,0,.79,0,1.24,0a2.46,2.46,0,0,1,1.85-.94,1.75,1.75,0,0,1-1.85.94,1.3,1.3,0,0,0-.24.83l-.64-.09c-.24.38-.43.83-.63,1.23L76.12,141c6.8-4.9,12.55-10,19.31-15.48,3.68-2.92,7.3-5.65,10.93-8.27,7.24-5.21,12.18-11.71,20.23-16.3,3-1.82,7.21-6.68,9.44-9.14,1.95-4.29-2.62-5.5-2.93-5.52-4.42-.51-4.46,2.4-9.82,4.84,3.47-1.85-.34,3.58-4.56,4.34-6.19,1-9.37,8.14-14.61,11.78-1.3.92-2.42,2.17-3.85,3.4-8,5.71-13.69,12.9-21.66,19.38-2,1.78-3.29,4-4.74,5.85A41.3,41.3,0,0,1,70,138.72,24.58,24.58,0,0,0,66,143c1.41-1.39,2.36-2.51,4-4,1.09-1,0,1.6-.58,2.42-.19.44-1.37,0-1.55.46a10.79,10.79,0,0,0-1.65,2.27c-.18.43-.75-.35-.85-.13-.89,1-.91,2.6-1.73,2.93-.59.29-1.14.54-1.67.78a4.11,4.11,0,0,0-.88.64l-.41.64a2.82,2.82,0,0,1,.89.59c-.31.18-.83.32-1.13.5.3-.18.82-.32,1.13-.5a2.82,2.82,0,0,0-.89-.59c-1,1.53-2.28,3.18-3.49,4.67l.07.05a5.83,5.83,0,0,1,3-1.61c-.52.14-.64-.1-.23-.49l.63.1c-.6.82-1.19,1.64-2.35,1.67L58,154c-.32.08-.5-.16-.71-.32-.16.14-.31.3-.46.46A8.36,8.36,0,0,0,59,153.82Z" transform="translate(-44 -34.19)"/><path class="cls-3" d="M67.77,146.77a4,4,0,0,1-.36.39l1.73-1.25C68.56,145.79,68.17,146.28,67.77,146.77Z" transform="translate(-44 -34.19)"/></g><polygon points="86.89 56.16 10.45 9.06 17.87 113.59 86.89 56.16"/><path d="M130.89,90.35,91.68,67.4Q82,61.75,72.51,56.1c-6.36-3.77-12.69-7.53-19-11.35l2.67-1.62c.67,8.71,1.41,17.41,2,26.12l1.92,26.13,1.79,26.13c.62,8.71,1.12,17.43,1.69,26.15l-2.88-1.23c5.68-4.68,11.42-9.3,17.18-13.93s11.54-9.25,17.39-13.89Zm0,0L97.44,119.52Q89,126.93,80.32,134.34c-5.74,4.95-11.51,9.9-17.32,14.79l-2.62,2.21-.26-3.43c-.68-8.71-1.41-17.41-2-26.12L56.17,95.66,54.38,69.52c-.61-8.71-1.12-17.43-1.68-26.14L52.48,40l2.89,1.81c6.45,4,12.86,8.11,19.24,12.19s12.75,8.17,19,12.26Z" transform="translate(-44 -34.19)"/></svg>