<svg id="Layer_1" data-name="Layer 1" xmlns="http://www.w3.org/2000/svg" viewBox="0 0 117.21 96.95"><defs><style>.cls-1{opacity:0.85;}.cls-2{fill:#202020;}</style></defs><title>stop</title><g class="cls-1"><path class="cls-2" d="M68.6,140.67l.05-.89a1.34,1.34,0,0,1-.34.45C68.19,140.42,68.41,140.52,68.6,140.67Z" transform="translate(-41.79 -51.04)"/><path class="cls-2" d="M68.71,139l0-.15-.09-.14C68.67,138.76,68.69,138.86,68.71,139Z" transform="translate(-41.79 -51.04)"/><path class="cls-2" d="M68.49,137.4a1.75,1.75,0,0,0,0,.79A1.2,1.2,0,0,0,68.49,137.4Z" transform="translate(-41.79 -51.04)"/><path class="cls-2" d="M68.24,138.63c.14-.09.29-.14.4,0h0c0-.16-.09-.31-.12-.47A1.18,1.18,0,0,1,68.24,138.63Z" transform="translate(-41.79 -51.04)"/><path class="cls-2" d="M68.24,138.63c-.14.1-.27.24-.35.29A1.93,1.93,0,0,0,68.24,138.63Z" transform="translate(-41.79 -51.04)"/><path class="cls-2" d="M64.85,138.21c-.1-.15.85-.11.64-.42a7,7,0,0,1-.69-2c-.21-.3.86-.79.64-1.1-.27-.72-1.55-2.57-1.5-1.48.14,1.63.4,2.7.57,4.18.37,1.2.82,2.35,1.15,3.58a3.24,3.24,0,0,1-.1,1c.15-.42.3-.85.45-1.33S65.06,139.2,64.85,138.21Z" transform="translate(-41.79 -51.04)"/><path class="cls-2" d="M67.9,147.24l-.31-.47c.7-.68.45-1.42.19-2.15l-.48.32c0,.41.31.47.53.1a3.38,3.38,0,0,0-.63,2.45C67.46,147.45,67.76,147.47,67.9,147.24Z" transform="translate(-41.79 -51.04)"/><path class="cls-2" d="M67.27,148c0-.17,0-.33-.07-.49l-.08,0,.13.48Z" transform="translate(-41.79 -51.04)"/><path class="cls-2" d="M67.62,134.1c0-2.07,0-4,.09-5.91-.19-.14-.41-.24-.3-.44a1.34,1.34,0,0,0,.34-.45l0-.83-.08-.29h0c-.11-.15-.26-.11-.4,0a2,2,0,0,1-.35.3c.08-.06.21-.2.35-.3a1.29,1.29,0,0,0,.27-.45,1.74,1.74,0,0,1,0-.79,1.16,1.16,0,0,1,0,.79l.13.47.09.13.11-1.89a4,4,0,0,0-.08-.4c-.14-.45-.27-.9.19-1.19l0-.34-.09.07a.73.73,0,0,1,.09-.13l.1-1.44c-.18-.3-.41-.62-.56-.93l.47-.33a1,1,0,0,1-.49-.53c-.28.27-.59.51-.78.73-.47.33,1,.7.07,1.09.9-.39-.54-.76-.07-1.09.19-.22.5-.46.78-.73a1.5,1.5,0,0,1,.43-1.52c.42.58,0,1.08-.43,1.52a1,1,0,0,0,.49.53l-.47.33c.15.31.38.63.56.93l.19-2.85c.48-6.23.16-12,.29-18.43.1-3.5.32-6.88.66-10.22C70,82.84,68.23,77,70,70.1c.6-2.64-.34-7.33-.72-9.77-1.94-3.12-5.85-.94-6.06-.77-3.28,2.39-1.14,3.74-2.8,8,.88-2.9,2.47,1.83.31,4.67-3.29,4.11.08,9.24-.52,14a29.58,29.58,0,0,0,.11,3.81c-.77,7.31,1.12,13.94,1.08,21.58.08,2,1,3.77,1.54,5.46a22.3,22.3,0,0,1-.22,3.6,13.84,13.84,0,0,0,.83,4.26c-.2-1.47-.47-2.53-.64-4.17-.08-1.08,1.24.74,1.52,1.46.22.31-.84.81-.62,1.12a6.72,6.72,0,0,0,.74,2c.22.31-.75.28-.64.44.23,1,1.46,1.73,1.2,2.36s-.28.91-.43,1.33a2.44,2.44,0,0,0,0,.81l.24.54a3.63,3.63,0,0,1,1-.25c-.05.27-.26.63-.32.89.06-.26.27-.62.32-.89a3.63,3.63,0,0,0-1,.25A36.43,36.43,0,0,1,66.36,135l.09,0a3.3,3.3,0,0,1,.58-2.45c-.21.36-.48.32-.54-.1l.48-.32c.27.73.54,1.45-.15,2.14l.32.47c-.13.23-.43.22-.69.26,0,.16,0,.33.07.49A6,6,0,0,0,67.62,134.1Z" transform="translate(-41.79 -51.04)"/><path class="cls-2" d="M67.62,125.69a3.65,3.65,0,0,1,.07.4l.12-1.59C67.34,124.78,67.48,125.24,67.62,125.69Z" transform="translate(-41.79 -51.04)"/></g><g class="cls-1"><path class="cls-2" d="M50.08,60.15l1,.11a1.58,1.58,0,0,1-.49-.37C50.38,59.77,50.25,60,50.08,60.15Z" transform="translate(-41.79 -51.04)"/><path class="cls-2" d="M52,60.36l.18,0,.16-.08A1.86,1.86,0,0,1,52,60.36Z" transform="translate(-41.79 -51.04)"/><path class="cls-2" d="M53.82,60.21a2.53,2.53,0,0,0-.91,0A1.47,1.47,0,0,0,53.82,60.21Z" transform="translate(-41.79 -51.04)"/><path class="cls-2" d="M52.42,59.9c.1.15.15.3,0,.4h0l.54-.1A1.38,1.38,0,0,1,52.42,59.9Z" transform="translate(-41.79 -51.04)"/><path class="cls-2" d="M52.42,59.9c-.1-.14-.26-.28-.31-.36A2.11,2.11,0,0,0,52.42,59.9Z" transform="translate(-41.79 -51.04)"/><path class="cls-2" d="M53,56.54c.18-.1.09.86.45.66a8.55,8.55,0,0,1,2.34-.59c.36-.2.86.88,1.22.68.85-.24,3-1.44,1.75-1.43-1.86.06-3.09.29-4.78.38-1.37.31-2.71.7-4.12,1a3.75,3.75,0,0,1-1.12-.16c.47.18.95.35,1.49.52C51,57.88,51.91,56.7,53,56.54Z" transform="translate(-41.79 -51.04)"/><path class="cls-2" d="M42.62,59.08l.55-.28c.74.74,1.59.53,2.44.32l-.34-.5c-.47,0-.55.28-.14.52a4.3,4.3,0,0,0-2.77-.77C42.4,58.64,42.37,58.93,42.62,59.08Z" transform="translate(-41.79 -51.04)"/><path class="cls-2" d="M41.81,58.41l.55,0v-.08l-.56.1Z" transform="translate(-41.79 -51.04)"/><path class="cls-2" d="M57.62,59.49c2.36.07,4.57.18,6.74.32.17-.19.29-.4.51-.28a1.52,1.52,0,0,0,.5.35l.95.07.33-.06h0c.18-.1.13-.25,0-.4a1.78,1.78,0,0,1-.32-.35c.06.08.22.21.32.35a1.44,1.44,0,0,0,.51.29,2.26,2.26,0,0,1,.9,0,1.47,1.47,0,0,1-.9,0l-.54.12L66.5,60l2.16.17.45-.08c.52-.12,1-.24,1.36.23l.39,0-.08-.09.15.09,1.63.14a9.93,9.93,0,0,1,1.09-.53l.36.47a1.11,1.11,0,0,1,.61-.48c-.29-.28-.56-.6-.81-.8-.36-.47-.82,1-1.25.05.43.91.89-.52,1.25-.05.25.2.52.52.81.8a1.85,1.85,0,0,1,1.73.46c-.67.41-1.24,0-1.73-.46a1.11,1.11,0,0,0-.61.48l-.36-.47a9.93,9.93,0,0,0-1.09.53c1.07.1,2.15.17,3.25.25,7.11.59,13.67.3,21.06.36,2,0,4,.08,5.92.16s3.86.19,5.77.31c7.62.5,14.32-1.48,22.2-.08,3,.45,8.37-.78,11.15-1.35,3.5-2.16.88-5.92.67-6.12-2.83-3.13-4.29-.86-9.2-2.27,3.31.7-2,2.6-5.3.57-4.73-3.06-10.48.52-15.89.07a42.4,42.4,0,0,0-4.33.22C99.57,52,92,53.94,83.35,53.85c-2.3.07-4.3,1-6.24,1.48A28.15,28.15,0,0,1,73,55a17.59,17.59,0,0,0-4.87.72c1.68-.16,2.9-.41,4.76-.53,1.24,0-.87,1.22-1.7,1.48-.35.21-.9-.86-1.25-.64a7.66,7.66,0,0,0-2.3.68c-.36.21-.3-.75-.48-.65-1.12.19-2,1.4-2.73,1.12-.54-.15-1-.31-1.5-.47a3.13,3.13,0,0,0-.92-.08l-.62.22a3.05,3.05,0,0,1,.24,1c-.29-.06-.71-.27-1-.34.29.07.71.28,1,.34a3.05,3.05,0,0,0-.24-1,45.6,45.6,0,0,1-4.83,1.31l0,.08a4.23,4.23,0,0,1,2.78.69c-.41-.23-.35-.5.13-.53l.35.49a2.26,2.26,0,0,1-2.44-.25l-.55.3c-.25-.14-.23-.44-.27-.7a5.32,5.32,0,0,0-.56.06A6.82,6.82,0,0,0,57.62,59.49Z" transform="translate(-41.79 -51.04)"/><path class="cls-2" d="M67.21,59.8a4.5,4.5,0,0,1-.45.06l1.81.16C68.26,59.55,67.73,59.67,67.21,59.8Z" transform="translate(-41.79 -51.04)"/></g><g class="cls-1"><path class="cls-2" d="M143.29,138.77l.09-.9a1.43,1.43,0,0,1-.36.44C142.9,138.5,143.11,138.62,143.29,138.77Z" transform="translate(-41.79 -51.04)"/><path class="cls-2" d="M143.47,137l0-.16-.08-.14Z" transform="translate(-41.79 -51.04)"/><path class="cls-2" d="M143.29,135.45a2,2,0,0,0,0,.81A1.25,1.25,0,0,0,143.29,135.45Z" transform="translate(-41.79 -51.04)"/><path class="cls-2" d="M143,136.7c.15-.09.3-.14.4,0h0c0-.16-.08-.32-.11-.48A1.43,1.43,0,0,1,143,136.7Z" transform="translate(-41.79 -51.04)"/><path class="cls-2" d="M143,136.7c-.14.08-.27.23-.36.27A2,2,0,0,0,143,136.7Z" transform="translate(-41.79 -51.04)"/><path class="cls-2" d="M139.63,136.15c-.1-.16.86-.08.66-.4a7,7,0,0,1-.62-2.07c-.21-.32.88-.78.67-1.1-.24-.74-1.47-2.66-1.45-1.55.09,1.66.32,2.75.43,4.25.33,1.22.74,2.41,1,3.67a3,3,0,0,1-.14,1c.17-.42.33-.85.5-1.33S139.81,137.16,139.63,136.15Z" transform="translate(-41.79 -51.04)"/><path class="cls-2" d="M142.36,145.4l-.3-.49c.73-.66.5-1.42.27-2.17l-.49.3c0,.43.29.49.52.13a3.45,3.45,0,0,0-.71,2.46C141.91,145.59,142.21,145.62,142.36,145.4Z" transform="translate(-41.79 -51.04)"/><path class="cls-2" d="M141.7,146.12c0-.16,0-.33,0-.49h-.08l.11.5Z" transform="translate(-41.79 -51.04)"/><path class="cls-2" d="M142.54,132.08c0-2.09.14-4.06.28-6-.19-.15-.4-.26-.28-.45a1.38,1.38,0,0,0,.35-.45l.07-.84-.07-.29h0c-.11-.16-.26-.12-.4,0a2,2,0,0,1-.36.28c.09,0,.22-.19.36-.28a1.31,1.31,0,0,0,.28-.45,2,2,0,0,1,0-.8,1.23,1.23,0,0,1,0,.8l.12.48.09.13.17-1.91c0-.15-.05-.29-.08-.4-.12-.47-.24-.93.23-1.21l0-.34-.08.06a.62.62,0,0,1,.09-.12l.14-1.45c-.17-.32-.39-.65-.53-1l.48-.32A1,1,0,0,1,143,117c-.29.26-.61.5-.81.72-.48.32,1,.73,0,1.11.91-.38-.53-.79,0-1.11.2-.22.52-.46.81-.72a1.5,1.5,0,0,1,.47-1.52c.4.59,0,1.09-.47,1.52a1,1,0,0,0,.47.55l-.48.32c.14.32.36.65.53,1l.27-2.89c.65-6.3.48-12.11.74-18.66.18-3.56.46-7,.86-10.35.79-6.74-.87-12.73,1-19.66.63-2.67-.27-7.44-.64-9.93-1.92-3.17-5.84-1-6.06-.83-3.3,2.39-1.16,3.78-2.86,8.09.91-2.92,2.46,1.88.26,4.74-3.33,4.11,0,9.34-.71,14.14a31.6,31.6,0,0,0,.05,3.86c-.9,7.37.84,14.11.62,21.84,0,2,.92,3.84,1.4,5.56a23.17,23.17,0,0,1-.33,3.63,14.14,14.14,0,0,0,.71,4.34c-.16-1.49-.4-2.58-.52-4.24,0-1.1,1.22.78,1.48,1.52.21.32-.86.79-.65,1.11a6.54,6.54,0,0,0,.67,2.05c.21.32-.75.26-.64.42.19,1,1.4,1.8,1.12,2.43s-.31.92-.47,1.34a2.49,2.49,0,0,0-.08.82l.23.55a3.31,3.31,0,0,1,1-.22c-.06.26-.28.63-.34.89.06-.26.28-.63.34-.89a3.31,3.31,0,0,0-1,.22,35.09,35.09,0,0,1,1.34,4.29l.09,0a3.4,3.4,0,0,1,.66-2.47c-.23.37-.49.31-.53-.11l.49-.31c.24.74.49,1.49-.23,2.16l.31.49c-.14.22-.44.2-.7.24a4.1,4.1,0,0,0,.06.49A5.83,5.83,0,0,0,142.54,132.08Z" transform="translate(-41.79 -51.04)"/><path class="cls-2" d="M142.8,123.57a3.27,3.27,0,0,1,.07.4l.16-1.61C142.56,122.64,142.68,123.1,142.8,123.57Z" transform="translate(-41.79 -51.04)"/></g><g class="cls-1"><path class="cls-2" d="M151.18,121.05l-1,0a1.51,1.51,0,0,1,.49.33C150.93,121.47,151,121.25,151.18,121.05Z" transform="translate(-41.79 -51.04)"/><path class="cls-2" d="M149.36,121h-.17l-.15.09Z" transform="translate(-41.79 -51.04)"/><path class="cls-2" d="M147.71,121.28a2,2,0,0,0,.84-.06A1.38,1.38,0,0,0,147.71,121.28Z" transform="translate(-41.79 -51.04)"/><path class="cls-2" d="M149,121.49c-.1-.14-.16-.29,0-.4h0l-.49.14A1.42,1.42,0,0,1,149,121.49Z" transform="translate(-41.79 -51.04)"/><path class="cls-2" d="M149,121.49c.1.13.26.26.32.34A1.72,1.72,0,0,0,149,121.49Z" transform="translate(-41.79 -51.04)"/><path class="cls-2" d="M148.7,124.89c-.16.11-.15-.85-.47-.63a7.11,7.11,0,0,1-2.13.76c-.32.23-.87-.82-1.19-.6-.77.3-2.69,1.64-1.53,1.55,1.73-.19,2.86-.49,4.42-.71,1.27-.42,2.48-.9,3.78-1.28a3.09,3.09,0,0,1,1,.07c-.45-.14-.92-.28-1.43-.41C150.52,123.39,149.74,124.64,148.7,124.89Z" transform="translate(-41.79 -51.04)"/><path class="cls-2" d="M158.18,121.5l-.49.33c-.75-.68-1.52-.39-2.28-.11l.35.47c.44-.06.48-.33.09-.53a3.76,3.76,0,0,0,2.63.53C158.42,121.93,158.43,121.63,158.18,121.5Z" transform="translate(-41.79 -51.04)"/><path class="cls-2" d="M159,122.1l-.51.09,0,.08.51-.15Z" transform="translate(-41.79 -51.04)"/><path class="cls-2" d="M144.24,122.26c-2.2.11-4.26.13-6.28.11-.15.2-.25.42-.46.31a1.37,1.37,0,0,0-.49-.32l-.88,0-.31.09h0c-.16.12-.1.26,0,.4a2.61,2.61,0,0,1,.32.34c-.06-.08-.22-.2-.32-.34a1.52,1.52,0,0,0-.49-.25,2,2,0,0,1-.84.07,1.32,1.32,0,0,1,.84-.07l.49-.15.14-.09-2-.06a3.72,3.72,0,0,0-.42.1c-.48.15-1,.3-1.27-.16h-.37l.08.08a.47.47,0,0,1-.14-.08l-1.53-.06a9.1,9.1,0,0,1-1,.59l-.36-.46a1.09,1.09,0,0,1-.54.5c.28.28.55.58.79.77.36.46.71-1,1.16-.11-.45-.89-.8.57-1.16.11-.24-.19-.51-.49-.79-.77a1.63,1.63,0,0,1-1.63-.38c.6-.44,1.15-.07,1.63.38a1.09,1.09,0,0,0,.54-.5l.36.46a9.1,9.1,0,0,0,1-.59l-3-.1c-6.62-.3-12.7.17-19.57.2-3.72,0-7.31-.16-10.85-.43-7.07-.54-13.29,1.32-20.57-.36-2.79-.56-7.76.44-10.35.85-3.3,2-1,5.86-.82,6.08,2.53,3.25,4,1.1,8.52,2.69-3.07-.84,1.94-2.5,5-.38,4.39,3.23,9.83-.23,14.89.27a34.58,34.58,0,0,0,4.06-.19c7.79.61,14.83-1.43,23-1.61,2.15-.13,4-1.12,5.78-1.7a26,26,0,0,1,3.83.12,15.54,15.54,0,0,0,4.51-1c-1.55.24-2.68.55-4.41.77-1.16.11.75-1.27,1.51-1.57.32-.23.88.81,1.2.58a7,7,0,0,0,2.11-.79c.32-.23.33.73.49.62,1-.26,1.79-1.52,2.48-1.28.51.12,1,.25,1.43.39a2.74,2.74,0,0,0,.86,0l.56-.26a3.22,3.22,0,0,1-.29-1c.28,0,.68.23,1,.28-.28,0-.68-.24-1-.28a3.22,3.22,0,0,0,.29,1,41.2,41.2,0,0,1,4.41-1.62l0-.09a3.73,3.73,0,0,1-2.63-.49c.39.2.35.47-.09.54l-.35-.47c.76-.3,1.53-.59,2.28.08l.48-.34c.25.13.25.43.31.68l.51-.09A6.33,6.33,0,0,0,144.24,122.26Z" transform="translate(-41.79 -51.04)"/><path class="cls-2" d="M135.31,122.55a3.38,3.38,0,0,1,.42-.09l-1.7-.06C134.35,122.85,134.83,122.7,135.31,122.55Z" transform="translate(-41.79 -51.04)"/></g><rect x="25.71" y="6.21" width="73" height="67.15"/><path d="M140.5,124.4l-36.4.23-36.6.11h-.34v-.34L67,57.25v-.5h.5l73,.17h.33v.33l-.11,33.66Zm0,0-.22-33.67-.11-33.48.33.32-73,.17.5-.49-.16,67.15-.34-.34,36.4.11Z" transform="translate(-41.79 -51.04)"/></svg>